<svg xmlns="http://www.w3.org/2000/svg" viewBox="0 0 1072.27 379.37"><g id="Camada_2" data-name="Camada 2"><g id="Camada_1-2" data-name="Camada 1"><polygon points="802.97 133.98 936.73 0 981.37 44.2 981.37 16.06 1012.08 16.06 1012.08 76.08 1072.27 133.98 1054 152.16 936.67 34.84 819.84 151.67 802.97 133.98" style="fill:#f6822a"/><rect x="921.65" y="111.05" width="31.94" height="31.94" style="fill:#f6822a"/><path d="M164.58,247.39q0,17.7-4.81,31.68a67,67,0,0,1-14,23.91,61,61,0,0,1-22.05,15.22A75.32,75.32,0,0,1,95,323.47q-16.14,0-28.1-5.74a54.67,54.67,0,0,1-20-16.3v77.94H0V176H42.54v21.12q18-24.53,52.18-24.54a76.15,76.15,0,0,1,29,5.28,63.13,63.13,0,0,1,22.05,14.91,63.94,63.94,0,0,1,14,23.6A94.89,94.89,0,0,1,164.58,247.39Zm-49.37.31q0-18.93-9.63-28.1t-24.53-9.16q-14.91,0-24.53,9.47t-9.63,27.48q0,18.33,9.63,28.26t24.53,9.94q14.91,0,24.53-9.32T115.21,247.7Z" style="fill:#0b75b1"/><path d="M243.46,320.37h-46.9V176h42.55v16.46a25.82,25.82,0,0,1,7-9,44.91,44.91,0,0,1,9.94-6.21,49,49,0,0,1,11.18-3.57,59.7,59.7,0,0,1,11-1.09,53.79,53.79,0,0,1,22.35,4.35l-7.76,37a71.25,71.25,0,0,0-9.47-2.18,63.24,63.24,0,0,0-9.16-.62,45.32,45.32,0,0,0-12.11,1.55,23.46,23.46,0,0,0-16.3,15.22q-2.34,6.21-2.33,15.84Z" style="fill:#0b75b1"/><path d="M394.37,323.47q-22,0-37.88-6.21T330.4,300.65a64.31,64.31,0,0,1-15.06-24.07,87.22,87.22,0,0,1,0-57.13,64.47,64.47,0,0,1,15.06-24.07q10.26-10.41,26.09-16.62t37.88-6.21q21.74,0,37.58,6.21T458,195.38a66,66,0,0,1,15.22,24.07,84.57,84.57,0,0,1,0,57.13A65.86,65.86,0,0,1,458,300.65Q447.79,311.06,432,317.26T394.37,323.47Zm0-37q16.15,0,25.47-10.87T429.15,248q0-17.07-9.31-27.63t-25.47-10.56q-16.14,0-25.3,10.56T359.9,248q0,16.77,9.17,27.64T394.37,286.52Z" style="fill:#0b75b1"/><path d="M674.79,247.39A97,97,0,0,1,670,279.07,67,67,0,0,1,656,303a61,61,0,0,1-22,15.22,75.3,75.3,0,0,1-28.72,5.27q-16.15,0-28.11-5.74a54.67,54.67,0,0,1-20-16.3v77.94H510.2V176h42.55v21.12q18-24.53,52.16-24.54a76.17,76.17,0,0,1,29,5.28,63.13,63.13,0,0,1,22,14.91,63.94,63.94,0,0,1,14,23.6A94.88,94.88,0,0,1,674.79,247.39Zm-49.38.31q0-18.93-9.63-28.1t-24.53-9.16q-14.91,0-24.53,9.47t-9.63,27.48q0,18.33,9.63,28.26t24.53,9.94q14.91,0,24.53-9.32T625.41,247.7Z" style="fill:#0b75b1"/><path d="M705.21,90.57H752.1V268.2c0,5.39.73,9.52,2.18,12.42s5.17,4.35,11.18,4.35a25.25,25.25,0,0,0,2.95-.16c.93-.1,1.91-.25,3-.46l3.73,35.71A68.12,68.12,0,0,1,762,322.7a152.77,152.77,0,0,1-16.15.77q-12.1,0-20-4a30.61,30.61,0,0,1-12.42-11.34,50.12,50.12,0,0,1-6.36-17.39,124.57,124.57,0,0,1-1.87-22.51Z" style="fill:#f6822a"/><path d="M852.1,202.06a207.47,207.47,0,0,0-23,1.24A202.21,202.21,0,0,0,804,208l-5-27.63a241.55,241.55,0,0,1,29.5-5.59,268.11,268.11,0,0,1,35.09-2.18q20.49,0,33.69,3.11t21,9.32a32.81,32.81,0,0,1,10.87,15.52,68.83,68.83,0,0,1,3.11,21.74v98.13H890.6V305.15q-7.14,9.32-20.18,13.82a85.13,85.13,0,0,1-27.95,4.5q-26.72,0-39.44-11.8T790.3,280.31q0-26.08,23.29-37.73t73.29-12V219.75a13.26,13.26,0,0,0-2.8-8.69,19.29,19.29,0,0,0-7.45-5.43,39.87,39.87,0,0,0-11-2.8A113.43,113.43,0,0,0,852.1,202.06Zm-12.42,77q0,7.14,4.19,11.49t14.44,4.35q13,0,20.81-7.46T886.88,266v-9q-22.36.32-34.78,4.5T839.68,279.07Z" style="fill:#f6822a"/><path d="M1015.13,320.37H968.24V176h42.54v16.46a25.85,25.85,0,0,1,7-9,44.68,44.68,0,0,1,9.94-6.21,48.77,48.77,0,0,1,11.17-3.57,59.78,59.78,0,0,1,11-1.09,53.87,53.87,0,0,1,22.36,4.35l-7.77,37a70.89,70.89,0,0,0-9.47-2.18,63.24,63.24,0,0,0-9.16-.62,45.32,45.32,0,0,0-12.11,1.55,23.46,23.46,0,0,0-16.3,15.22q-2.33,6.21-2.33,15.84Z" style="fill:#f6822a"/></g></g></svg>